<svg xmlns="http://www.w3.org/2000/svg" class="marks" width="1001" height="814">
    <path fill="#fff" d="M0 0h1001v814H0z"/>
    <g class="mark-group role-frame root" aria-roledescription="group mark container" fill="none" stroke-miterlimit="10">
        <path class="background" aria-hidden="true" d="M116.5 5.5h880v600h-880z" stroke="#ddd"/>
        <g class="mark-group role-axis" aria-roledescription="axis" aria-label="Y-axis for a linear scale with values from 0 to 3,500,000">
            <path class="background" aria-hidden="true" d="M116.5 5.5z" pointer-events="none"/>
            <g class="mark-rule role-axis-grid" pointer-events="none" stroke="#ddd">
                <path d="M116.5 605.5h880M116.5 571.5h880M116.5 536.5h880M116.5 502.5h880M116.5 468.5h880M116.5 434.5h880M116.5 399.5h880M116.5 365.5h880M116.5 331.5h880M116.5 296.5h880M116.5 262.5h880M116.5 228.5h880M116.5 194.5h880M116.5 159.5h880M116.5 125.5h880M116.5 91.5h880M116.5 56.5h880M116.5 22.5h880"/>
            </g>
        </g>
        <g class="mark-group role-axis" aria-roledescription="axis" aria-label="X-axis titled 'module' for a discrete scale with 3 values: simple-runtypes, ts-interface-checker, valita">
            <path class="background" aria-hidden="true" d="M116.5 605.5z" pointer-events="none"/>
            <g class="mark-rule role-axis-tick" pointer-events="none" stroke="#888">
                <path d="M262.5 605.5v5M556.5 605.5v5M849.5 605.5v5"/>
            </g>
            <g class="mark-text role-axis-label" pointer-events="none" font-family="sans-serif" font-size="14" fill="#000">
                <text transform="rotate(90 -176.917 435.583)">simple-runtypes</text>
                <text transform="rotate(90 -30.25 582.25)">ts-interface-ch…</text>
                <text transform="rotate(90 116.417 728.917)">valita</text>
            </g>
            <path stroke="#888" d="M116.5 605.5h880" class="mark-rule role-axis-domain" pointer-events="none"/>
            <text text-anchor="middle" transform="translate(556.5 806.5)" font-family="sans-serif" font-size="14" fill="#000" class="mark-text role-axis-title" pointer-events="none">module</text>
        </g>
        <g class="mark-group role-axis" aria-roledescription="axis" aria-label="Y-axis titled 'operations / sec' for a linear scale with values from 0 to 3,500,000">
            <path class="background" aria-hidden="true" d="M116.5 5.5z" pointer-events="none"/>
            <g class="mark-rule role-axis-tick" pointer-events="none" stroke="#888">
                <path d="M116.5 605.5h-5M116.5 571.5h-5M116.5 536.5h-5M116.5 502.5h-5M116.5 468.5h-5M116.5 434.5h-5M116.5 399.5h-5M116.5 365.5h-5M116.5 331.5h-5M116.5 296.5h-5M116.5 262.5h-5M116.5 228.5h-5M116.5 194.5h-5M116.5 159.5h-5M116.5 125.5h-5M116.5 91.5h-5M116.5 56.5h-5M116.5 22.5h-5"/>
            </g>
            <g class="mark-text role-axis-label" pointer-events="none" text-anchor="end" font-family="sans-serif" font-size="12" fill="#000">
                <text transform="translate(109.5 609.5)">0</text>
                <text transform="translate(109.5 575.214)">200,000</text>
                <text transform="translate(109.5 540.929)">400,000</text>
                <text transform="translate(109.5 506.643)">600,000</text>
                <text transform="translate(109.5 472.357)">800,000</text>
                <text transform="translate(109.5 438.071)">1,000,000</text>
                <text transform="translate(109.5 403.786)">1,200,000</text>
                <text transform="translate(109.5 369.5)">1,400,000</text>
                <text transform="translate(109.5 335.214)">1,600,000</text>
                <text transform="translate(109.5 300.929)">1,800,000</text>
                <text transform="translate(109.5 266.643)">2,000,000</text>
                <text transform="translate(109.5 232.357)">2,200,000</text>
                <text transform="translate(109.5 198.071)">2,400,000</text>
                <text transform="translate(109.5 163.786)">2,600,000</text>
                <text transform="translate(109.5 129.5)">2,800,000</text>
                <text transform="translate(109.5 95.214)">3,000,000</text>
                <text transform="translate(109.5 60.929)">3,200,000</text>
                <text transform="translate(109.5 26.643)">3,400,000</text>
            </g>
            <path stroke="#888" d="M116.5 605.5V5.5" class="mark-rule role-axis-domain" pointer-events="none"/>
            <text text-anchor="middle" transform="rotate(-90 161 144.5)" font-family="sans-serif" font-size="14" fill="#000" class="mark-text role-axis-title" pointer-events="none">operations / sec</text>
        </g>
        <g class="mark-rect role-mark marks" aria-roledescription="rect mark container" fill="#4c78a8">
            <path d="M130.667 314.149h264V605h-264zM424 169.71h264V605H424zM717.333 14.852h264V605h-264z"/>
        </g>
    </g>
</svg>
